# xmcd
#
# Track frame offsets: 
#        150
#        27277
#        50466
#        72483
#        102678
#        124815
#        156449
#        182634
#
# Disc length: 2899 seconds
#
# Revision: 1
# Processed by: cddbd v1.5.2PL0 Copyright (c) Steve Scherf et al.
# Submitted via: ExactAudioCopy v0.95b2
#
DISCID=730b5108
DTITLE=Mark Mueller and Scott Nelson - Quiet Time Massage
DYEAR=2003
DGENRE=New Age
TTITLE0=Day At The Spa
TTITLE1=Ayurveda
TTITLE2=Morning Massage
TTITLE3=Vermont Wildflowers
TTITLE4=Luminous Sea
TTITLE5=Rejuvenate
TTITLE6=Energy Path
TTITLE7=Aromatherapy
EXTD=YEAR: 2003
EXTT0=
EXTT1=
EXTT2=
EXTT3=
EXTT4=
EXTT5=
EXTT6=
EXTT7=
PLAYORDER=
